# AST/ASF file generated using VICON BodyLanguage
# -----------------------------------------------
:version 1.10
:name VICON
:units
  mass 1.0
  length 0.45
  angle deg
:documentation
   .ast/.asf automatically generated from VICON data using
   VICON BodyBuilder and BodyLanguage model FoxedUp or BRILLIANT.MOD
:root
   order TX TY TZ RX RY RZ
   axis XYZ
   position 0 0 0  
   orientation 0 0 0 
:bonedata
  begin
     id 1 
     name lhipjoint
     direction 0.707368 -0.647095 0.284426 
     length 2.60678 
     axis 0 0 0  XYZ
  end
  begin
     id 2 
     name lfemur
     direction 0.34202 -0.939693 0  
     length 6.63812  
     axis 0 0 20  XYZ
    dof rx ry rz
    limits (-160.0 20.0)
           (-70.0 70.0)
           (-60.0 70.0)
  end
  begin
     id 3 
     name ltibia
     direction 0.34202 -0.939693 0   
     length 7.51178   
     axis 0 0 20   XYZ
    dof rx
    limits (-10.0 170.0)
  end
  begin
     id 4 
     name lfoot
     direction 0.121251 -0.333133 0.935051   
     length 1.83716   
     axis -90 7.62852e-016 20   XYZ
    dof rx rz
    limits (-45.0 90.0)
           (-70.0 20.0)
  end
  begin
     id 5 
     name ltoes
     direction 1.53611e-011 -4.21962e-011 1   
     length 0.916133   
     axis -90 7.62852e-016 20   XYZ
    dof rx
    limits (-90.0 20.0)
  end
  begin
     id 6 
     name rhipjoint
     direction -0.692419 -0.660507 0.290321   
     length 2.55385  
     axis 0 0 0  XYZ 
  end
  begin
     id 7 
     name rfemur
     direction -0.34202 -0.939693 0   
     length 7.29079   
     axis 0 0 -20   XYZ
    dof rx ry rz
    limits (-160.0 20.0)
           (-70.0 70.0)
           (-70.0 60.0)
  end
  begin
     id 8 
     name rtibia
     direction -0.34202 -0.939693 0   
     length 7.47143   
     axis 0 0 -20   XYZ
    dof rx
    limits (-10.0 170.0)
 end
 begin
     id 9 
     name rfoot
     direction -0.119907 -0.329441 0.936532   
     length 1.79439  
     axis -90 -7.62852e-016 -20   XYZ
    dof rx rz
    limits (-45.0 90.0)
           (-20.0 70.0)
  end
  begin
     id 10 
     name rtoes
     direction -1.53571e-011 -4.21961e-011 1   
     length 0.896039   
     axis -90 -7.62852e-016 -20   XYZ
    dof rx
    limits (-90.0 20.0)
  end
  begin
     id 11 
     name lowerback
     direction 0.0367721 0.992912 -0.113016   
     length 1.73542   
     axis 0 0 0   XYZ
    dof rx ry rz
    limits (-20.0 45.0)
           (-30.0 30.0)
           (-30.0 30.0)
  end
  begin
     id 12 
     name upperback
     direction -0.000314626 0.990678 0.136227   
     length 1.7514   
     axis 0 0 0   XYZ
    dof rx ry rz
    limits (-20.0 45.0)
           (-30.0 30.0)
           (-30.0 30.0)
  end
  begin
     id 13 
     name thorax
     direction -0.0226159 0.981151 0.191917   
     length 1.71471   
     axis 0 0 0   XYZ
    dof rx ry rz
    limits (-20.0 45.0)
           (-30.0 30.0)
           (-30.0 30.0)
  end
  begin
     id 14 
     name lowerneck
     direction 0.0219333 0.998071 0.0580739   
     length 1.65882   
     axis 0 0 0   XYZ
    dof rx ry rz
    limits (-20.0 45.0)
           (-30.0 30.0)
           (-30.0 30.0)
  end
  begin
     id 15 
     name upperneck
     direction 0.0384529 0.980058 -0.194957   
     length 1.6612   
     axis 0 0 0   XYZ
    dof rx ry rz
    limits (-20.0 45.0)
           (-30.0 30.0)
           (-30.0 30.0)
  end
  begin
     id 16
     name head
     direction 0.00592123 0.997421 -0.0715234  
     length 1.68077  
     axis 0 0 0   XYZ
    dof rx ry rz
    limits (-20.0 45.0)
           (-30.0 30.0)
           (-30.0 30.0)
  end
  begin
     id 17 
     name lclavicle
     direction 0.904803 0.417826 0.0821728  
     length 3.42227  
     axis 0 0 0   XYZ
    dof ry rz
    limits (-20.0 10.0)
           (0.0 20.0)
  end
  begin
     id 18 
     name lhumerus
     direction 1 -4.48965e-011 -2.68786e-027   
     length 5.11878   
     axis -180 -30 -90   XYZ
    dof rx ry rz
    limits (-60.0 90.0)
           (-90.0 90.0)
           (-90.0 90.0)
  end
  begin
     id 19
     name lradius
     direction 1 -4.48965e-011 2.61168e-028   
     length 3.59971   
     axis -180 -30 -90   XYZ
    dof rx
    limits (-10.0 170.0)
  end
  begin
     id 20
     name lwrist
     direction 1 -4.48965e-011 1.58672e-027   
     length 1.79985   
     axis -1.65735e-015 90 90   XYZ
    dof ry
    limits (-180.0 0.0)
 end
  begin
     id 21 
     name lhand
     direction 1 -4.48942e-011 3.17344e-027   
     length 0.62877   
     axis -2.02492e-015 90 90   XYZ
    dof rx rz
    limits (-90.0 90.0)
           (-45.0 45.0)
  end
  begin
     id 22 
     name lfingers
     direction 1 -4.49011e-011 6.34687e-027   
     length 0.506931   
     axis -4.04985e-015 90 90   XYZ
    dof rx
    limits (0.0 90.0)
  end
  begin
     id 23
     name lthumb
     direction 0.707107 -6.34982e-011 0.707107   
     length 0.727854   
     axis -90 45 2.85299e-015   XYZ
    dof rx rz
    limits (-45.0 45.0)
           (-45.0 45.0)
  end
  begin
     id 24 
     name rclavicle
     direction -0.945647 0.32488 0.0143075   
     length 3.52737  
     axis 0 0 0   XYZ 
    dof ry rz
    limits (-10.0 20.0)
           (-20.0 0.0)
  end
  begin
     id 25 
     name rhumerus
     direction -1 -4.48962e-011 1.92182e-027  
     length 5.4902   
     axis -180 30 90   XYZ
    dof rx ry rz
    limits (-90.0 60.0)
           (-90.0 90.0)
           (-90.0 90.0)
  end
  begin
     id 26 
     name rradius
     direction -1 -4.48967e-011 -5.97193e-028   
     length 3.20659   
     axis -180 30 90   XYZ
    dof rx
    limits (-10.0 170.0)
  end
  begin
     id 27 
     name rwrist
     direction -1 -4.48964e-011 1.58672e-027   
     length 1.6033   
     axis -1.65735e-015 -90 -90   XYZ
    dof ry
    limits (-180.0 0.0)
  end
  begin
     id 28
     name rhand
     direction -1 -4.49006e-011 3.17344e-027   
     length 0.691885   
     axis -2.02492e-015 -90 -90   XYZ
    dof rx rz
    limits (-90.0 90.0)
           (-45.0 45.0)
  end
  begin
     id 29
     name rfingers
     direction -1 -4.48908e-011 6.34687e-027   
     length 0.557815   
     axis -4.04985e-015 -90 -90   XYZ
    dof rx
    limits (0.0 90.0)
  end
  begin
     id 30
     name rthumb
     direction -0.707107 -6.34999e-011 0.707107   
     length 0.800915   
     axis -90 -45 -2.85299e-015   XYZ
    dof rx rz
    limits (-45.0 45.0)
           (-45.0 45.0)
  end
:hierarchy
  begin
    root lhipjoint rhipjoint lowerback
    lhipjoint lfemur
    lfemur ltibia
    ltibia lfoot
    lfoot ltoes
    rhipjoint rfemur
    rfemur rtibia
    rtibia rfoot
    rfoot rtoes
    lowerback upperback
    upperback thorax
    thorax lowerneck lclavicle rclavicle
    lowerneck upperneck
    upperneck head
    lclavicle lhumerus
    lhumerus lradius
    lradius lwrist
    lwrist lhand lthumb
    lhand lfingers
    rclavicle rhumerus
    rhumerus rradius
    rradius rwrist
    rwrist rhand rthumb
    rhand rfingers
  end

#!OML:ASF I:\Actors\actors\Patient Classification 1\Patient 1\Session 1\Subject1.ASF
:FULLY-SPECIFIED
:DEGREES
115
root 0.596908 17.4453 9.67041 11.0932 -1.19131 -9.54926
lowerback -2.52507 0.610713 6.66612
upperback -10.0866 1.1424 1.85776
thorax -9.201 0.107386 -1.80026
lowerneck -7.77064 -3.08906 -2.30569
upperneck 18.9269 -6.26796 11.8217
head 7.53968 -2.16089 3.70712
rclavicle 1.03368e-014 -3.18055e-015
rhumerus -46.4929 -14.8162 -78.0757
rradius 26.0679
rwrist 30.0626
rhand 15.1573 -37.3104
rfingers 7.12502
rthumb 39.9997 -62.5365
lclavicle 1.03368e-014 -3.18055e-015
lhumerus -52.215 13.6171 77.7238
lradius 27.6142
lwrist 5.17763
lhand -22.5093 4.05574
lfingers 7.12502
lthumb 3.91692 33.9995
rfemur -4.56168 25.636 26.346
rtibia 1.88786
rfoot -12.0337 -25.715
rtoes 4.93652
lfemur 5.10075 -44.3494 -11.1303
ltibia -5.00391
lfoot -20.8894 52.4169
ltoes 8.45022
116
root 0.596879 17.4457 9.66934 11.1106 -1.19352 -9.55615
lowerback -2.52124 0.622746 6.67876
upperback -10.0691 1.15755 1.84632
thorax -9.18204 0.114139 -1.8204
lowerneck -7.61155 -3.13091 -2.34383
upperneck 18.4474 -6.28568 11.9356
head 7.36039 -2.18617 3.74385
rclavicle 1.81888e-014 -2.70347e-014
rhumerus -46.4959 -14.5896 -78.2602
rradius 26.2096
rwrist 29.7663
rhand 15.1346 -37.2403
rfingers 7.12502
rthumb 39.9783 -62.4729
lclavicle 1.81888e-014 -2.70347e-014
lhumerus -52.1663 13.4757 77.8453
lradius 27.7092
lwrist 5.29379
lhand -22.5198 4.05136
lfingers 7.12502
lthumb 3.90685 33.9953
rfemur -4.59523 25.635 26.3412
rtibia 1.90483
rfoot -12.0758 -25.7063
rtoes 4.89379
lfemur 5.04364 -44.3344 -11.0829
ltibia -4.98712
lfoot -20.8877 52.4029
ltoes 8.49481
117
root 0.596914 17.446 9.66831 11.126 -1.17615 -9.5662
lowerback -2.51669 0.616711 6.67637
upperback -10.0633 1.15069 1.86276
thorax -9.17914 0.111983 -1.80132
lowerneck -7.65923 -3.16992 -2.45721
upperneck 18.2799 -6.33475 12.0895
head 7.3269 -2.20934 3.80661
rclavicle 9.74045e-015 -7.95139e-016
rhumerus -46.4882 -14.2774 -78.4483
rradius 26.3106
rwrist 29.528
rhand 15.274 -37.2008
rfingers 7.12502
rthumb 40.1095 -62.3937
lclavicle 9.74045e-015 -7.95139e-016
lhumerus -52.1501 13.3745 77.9684
lradius 27.7677
lwrist 5.35831
lhand -22.4214 4.0525
lfingers 7.12502
lthumb 4.00185 33.9947
rfemur -4.62149 25.6217 26.3441
rtibia 1.91931
rfoot -12.0961 -25.717
rtoes 4.80194
lfemur 4.97769 -44.3137 -11.0178
ltibia -4.96403
lfoot -21.0496 52.3216
ltoes 8.76853
118
root 0.597173 17.4472 9.66845 11.1274 -1.16403 -9.54877
lowerback -2.52151 0.60938 6.64171
upperback -10.0689 1.14067 1.87557
thorax -9.18345 0.110321 -1.76789
lowerneck -7.88792 -3.22326 -2.54399
upperneck 18.4708 -6.42639 12.1131
head 7.44166 -2.24179 3.82113
rclavicle -1.21259e-014 4.05521e-014
rhumerus -46.4977 -13.9435 -78.6349
rradius 26.3774
rwrist 29.2678
rhand 15.4135 -37.2476
rfingers 7.12502
rthumb 40.2408 -62.4006
lclavicle -1.21259e-014 4.05521e-014
lhumerus -52.154 13.2645 78.0852
lradius 27.7764
lwrist 5.43549
lhand -22.3552 4.03629
lfingers 7.12502
lthumb 4.06577 33.9772
rfemur -4.60898 25.6094 26.3224
rtibia 1.88241
rfoot -12.0442 -25.7367
rtoes 4.73026
lfemur 4.96292 -44.3236 -11.028
ltibia -4.949
lfoot -21.2056 52.2747
ltoes 8.94217
119
root 0.598037 17.4488 9.66895 11.1398 -1.161 -9.50708
lowerback -2.53746 0.606356 6.61401
upperback -10.0949 1.1349 1.86278
thorax -9.20352 0.108052 -1.7655
lowerneck -8.17289 -3.26918 -2.46228
upperneck 18.8584 -6.51056 11.9045
head 7.61818 -2.26927 3.73221
rclavicle 6.16232e-015 -8.34896e-015
rhumerus -46.5326 -13.7287 -78.7669
rradius 26.3876
rwrist 29.1301
rhand 15.4437 -37.3271
rfingers 7.12502
rthumb 40.2692 -62.4714
lclavicle 6.16232e-015 -8.34896e-015
lhumerus -52.1413 13.1974 78.124
lradius 27.697
lwrist 5.42864
lhand -22.2834 4.1623
lfingers 7.12502
lthumb 4.13506 34.1019
rfemur -4.61412 25.5674 26.2595
rtibia 1.83493
rfoot -11.9911 -25.7203
rtoes 4.67989
lfemur 4.96085 -44.3667 -11.0862
ltibia -4.94988
lfoot -21.1095 52.3191
ltoes 8.74052
120
root 0.598938 17.4497 9.66951 11.1574 -1.1514 -9.47016
lowerback -2.54309 0.586823 6.59595
upperback -10.1319 1.10983 1.8664
thorax -9.24404 0.0954811 -1.74998
lowerneck -8.41338 -3.28434 -2.28047
upperneck 19.2202 -6.53343 11.5507
head 7.76564 -2.27606 3.58306
rclavicle -5.1684e-015 -2.50469e-014
rhumerus -46.5634 -13.6449 -78.784
rradius 26.3514
rwrist 29.2036
rhand 15.4559 -37.3714
rfingers 7.12502
rthumb 40.2806 -62.5122
lclavicle -5.1684e-015 -2.50469e-014
lhumerus -52.1374 13.2573 78.0783
lradius 27.5616
lwrist 5.27871
lhand -22.1992 4.20672
lfingers 7.12502
lthumb 4.2164 34.1447
rfemur -4.63225 25.5523 26.2036
rtibia 1.83392
rfoot -12.0226 -25.6812
rtoes 4.79034
lfemur 4.9372 -44.3923 -11.1241
ltibia -4.93604
lfoot -21.0409 52.341
ltoes 8.56942
121
root 0.599214 17.4501 9.67015 11.1617 -1.14754 -9.46575
lowerback -2.54377 0.560238 6.59082
upperback -10.1628 1.07732 1.89276
thorax -9.28186 0.0795079 -1.71706
lowerneck -8.56697 -3.285 -2.245
upperneck 19.4665 -6.53443 11.3771
head 7.86805 -2.27504 3.52053
rclavicle 7.05686e-015 -3.69739e-014
rhumerus -46.563 -13.6576 -78.707
rradius 26.2634
rwrist 29.3523
rhand 15.462 -37.3499
rfingers 7.12502
rthumb 40.2863 -62.4889
lclavicle 7.05686e-015 -3.69739e-014
lhumerus -52.1787 13.3234 78.0388
lradius 27.4945
lwrist 5.15249
lhand -22.2352 4.17432
lfingers 7.12502
lthumb 4.18162 34.113
rfemur -4.63423 25.5249 26.1988
rtibia 1.84837
rfoot -12.0234 -25.6389
rtoes 4.79775
lfemur 4.94178 -44.4125 -11.1381
ltibia -4.92725
lfoot -21.1077 52.3568
ltoes 8.63837
122
root 0.599413 17.4497 9.67021 11.1519 -1.15967 -9.45143
lowerback -2.54143 0.54396 6.58004
upperback -10.1814 1.05669 1.89977
thorax -9.30599 0.0695009 -1.70237
lowerneck -8.55365 -3.26608 -2.23322
upperneck 19.5014 -6.50532 11.3365
head 7.87303 -2.26321 3.50849
rclavicle -1.81888e-014 -1.47101e-014
rhumerus -46.5604 -13.8091 -78.5651
rradius 26.1575
rwrist 29.5475
rhand 15.3904 -37.2347
rfingers 7.12502
rthumb 40.219 -62.3943
lclavicle -1.81888e-014 -1.47101e-014
lhumerus -52.2259 13.3322 78.0136
lradius 27.5101
lwrist 5.10279
lhand -22.3084 4.24666
lfingers 7.12502
lthumb 4.11096 34.1867
rfemur -4.61986 25.4964 26.1866
rtibia 1.83064
rfoot -11.9705 -25.6372
rtoes 4.74142
lfemur 4.98188 -44.4418 -11.1869
ltibia -4.93538
lfoot -21.173 52.3784
ltoes 8.78593
123
root 0.60036 17.4488 9.6696 11.1391 -1.16218 -9.42969
lowerback -2.53169 0.522305 6.57862
upperback -10.1943 1.02965 1.90929
thorax -9.32879 0.0558178 -1.68994
lowerneck -8.38412 -3.22165 -2.10345
upperneck 19.3204 -6.41254 11.198
head 7.76626 -2.23435 3.4482
rclavicle -1.03368e-014 1.27222e-014
rhumerus -46.5686 -14.0062 -78.3879
rradius 26.0792
rwrist 29.794
rhand 15.2525 -37.1715
rfingers 7.12502
rthumb 40.0892 -62.3706
lclavicle -1.03368e-014 1.27222e-014
lhumerus -52.2706 13.3971 77.9781
lradius 27.5481
lwrist 5.08948
lhand -22.3702 4.39942
lfingers 7.12502
lthumb 4.05131 34.3406
rfemur -4.60719 25.5079 26.1608
rtibia 1.82331
rfoot -12.005 -25.647
rtoes 4.90516
lfemur 5.00519 -44.47 -11.2365
ltibia -4.93293
lfoot -21.2662 52.3754
ltoes 8.92457
124
root 0.601355 17.4475 9.6691 11.1387 -1.14942 -9.47056
lowerback -2.52793 0.51055 6.65221
upperback -10.2108 1.01859 1.92883
thorax -9.35159 0.0442657 -1.70912
lowerneck -8.32867 -3.22352 -2.30817
upperneck 19.2103 -6.39775 11.3363
head 7.72874 -2.23597 3.52992
rclavicle -1.88845e-015 3.18055e-014
rhumerus -46.5614 -14.1561 -78.2643
rradius 26.0255
rwrist 29.9277
rhand 15.1601 -37.3088
rfingers 7.12502
rthumb 40.0023 -62.5341
lclavicle -1.88845e-015 3.18055e-014
lhumerus -52.3014 13.4239 77.9743
lradius 27.5903
lwrist 5.1103
lhand -22.4501 4.65456
lfingers 7.12502
lthumb 3.97412 34.5972
rfemur -4.61569 25.5217 26.203
rtibia 1.84656
rfoot -12.0332 -25.6432
rtoes 4.9213
lfemur 4.99939 -44.4869 -11.1928
ltibia -4.92903
lfoot -21.2361 52.4035
ltoes 8.84774
125
root 0.601403 17.4467 9.66846 11.1376 -1.15944 -9.52607
lowerback -2.51371 0.512391 6.71945
upperback -10.2196 1.02603 1.94597
thorax -9.3704 0.0424789 -1.72847
lowerneck -8.24561 -3.20375 -2.33316
upperneck 19.0754 -6.37979 11.4811
head 7.6735 -2.22427 3.58341
rclavicle 1.78906e-014 -2.70347e-014
rhumerus -46.5271 -14.163 -78.2735
rradius 26.0486
rwrist 29.7951
rhand 15.165 -37.4813
rfingers 7.12502
rthumb 40.0069 -62.7053
lclavicle 1.78906e-014 -2.70347e-014
lhumerus -52.2876 13.412 77.9787
lradius 27.6055
lwrist 5.09649
lhand -22.4705 4.72957
lfingers 7.12502
lthumb 3.95446 34.6726
rfemur -4.63042 25.5307 26.2672
rtibia 1.87068
rfoot -11.9973 -25.6508
rtoes 4.65912
lfemur 5.00726 -44.4921 -11.1325
ltibia -4.93649
lfoot -21.1814 52.4424
ltoes 8.75468
126
root 0.601376 17.447 9.66738 11.1213 -1.18484 -9.51864
lowerback -2.47711 0.501712 6.70574
upperback -10.2256 1.01556 1.95637
thorax -9.39984 0.037969 -1.70943
lowerneck -8.21579 -3.20444 -2.49005
upperneck 18.9755 -6.39052 11.7063
head 7.64807 -2.22582 3.68347
rclavicle 1.59028e-014 -1.51076e-014
rhumerus -46.5055 -14.0786 -78.3353
rradius 26.1227
rwrist 29.6121
rhand 15.2238 -37.5254
rfingers 7.12502
rthumb 40.0622 -62.7327
lclavicle 1.59028e-014 -1.51076e-014
lhumerus -52.249 13.3985 77.9978
lradius 27.5705
lwrist 5.14875
lhand -22.4234 4.5018
lfingers 7.12502
lthumb 3.99991 34.444
rfemur -4.62572 25.5478 26.261
rtibia 1.87828
rfoot -12.0108 -25.6544
rtoes 4.63808
lfemur 5.0515 -44.5263 -11.1714
ltibia -4.93853
lfoot -21.333 52.4621
ltoes 8.9917
127
root 0.602127 17.4478 9.66743 11.0964 -1.20527 -9.49401
lowerback -2.44002 0.494983 6.69071
upperback -10.2401 1.00983 1.95178
thorax -9.43851 0.034739 -1.7058
lowerneck -8.27266 -3.21433 -2.48256
upperneck 19.0666 -6.41425 11.6928
head 7.68976 -2.23251 3.67618
rclavicle -1.96797e-014 2.66371e-014
rhumerus -46.5254 -14.0074 -78.3934
rradius 26.1737
rwrist 29.5328
rhand 15.3145 -37.5338
rfingers 7.12502
rthumb 40.1477 -62.7152
lclavicle -1.96797e-014 2.66371e-014
lhumerus -52.2428 13.3104 78.0515
lradius 27.5421
lwrist 5.22413
lhand -22.3714 4.29627
lfingers 7.12502
lthumb 4.05015 34.2375
rfemur -4.59028 25.5498 26.2387
rtibia 1.85709
rfoot -12.0085 -25.6364
rtoes 4.7615
lfemur 5.10724 -44.533 -11.2504
ltibia -4.93618
lfoot -21.3409 52.4878
ltoes 9.03808
